<?xml version="1.0" encoding="utf-8"?>
<svg viewBox="118.252 0 25.748 32" fill="none" xmlns="http://www.w3.org/2000/svg">
  <g clip-path="url(#clip0_9_8675)">
    <path d="M141.165 19.2082C141.107 19.2538 141.051 19.2879 141.006 19.3153C140.992 19.3221 140.981 19.3289 140.97 19.3358L132.283 24.7203C128.858 26.8477 128.819 26.866 128.783 26.8842C126.459 27.9957 123.905 27.8295 121.781 26.4286C119.492 24.9162 118.175 22.2968 118.256 19.42L118.281 7.08378C118.281 6.84461 118.29 6.63278 118.31 6.43918C118.452 5.04292 118.971 3.73777 119.814 2.66268C121.115 0.999929 123.06 0.07061 125.072 0C125.029 0.145775 124.986 0.293829 124.942 0.44416C124.501 1.92469 124.02 3.47356 123.503 5.09303C122.984 6.71478 122.502 8.27959 122.06 9.79201C121.621 11.3044 121.246 12.6939 120.94 13.958C120.639 15.2244 120.502 16.2426 120.533 17.0147C120.562 18.2789 120.783 19.1262 121.194 19.5567C121.605 19.9895 121.979 20.2218 122.314 20.256C123.35 20.4086 124.317 20.256 125.211 19.789C126.11 19.3266 126.949 18.6661 127.727 17.8006C128.505 16.9373 129.235 15.9419 129.919 14.8167C130.604 13.687 131.261 12.5526 131.886 11.4092C132.511 10.2681 133.111 9.16563 133.688 8.10193C134.271 7.03594 134.848 6.13396 135.426 5.39369L135.563 5.76269C135.563 6.81273 135.433 7.83088 135.174 8.81942C134.914 9.80568 134.785 10.8238 134.785 11.8739C134.785 12.3681 134.837 12.8624 134.945 13.3544C135.053 13.8487 135.222 14.2883 135.451 14.6755C135.678 15.0604 135.981 15.377 136.364 15.623C136.743 15.8713 137.222 15.9943 137.8 15.9943C138.198 15.9943 138.578 15.8622 138.944 15.6003C139.308 15.3383 139.65 15.0217 139.969 14.6504C140.291 14.2814 140.574 13.8965 140.817 13.4979C141.06 13.097 141.257 12.7417 141.413 12.4296C141.914 11.4502 142.411 10.4776 142.903 9.51185C143.485 10.4958 143.847 11.5914 143.96 12.7121C144.22 15.2654 143.2 17.6343 141.165 19.2082Z" fill="#E6BEAE"/>
    <path d="M134.044 3.58288C133.907 3.79471 133.765 4.01337 133.619 4.23887C132.6 5.81279 131.535 7.42315 130.424 9.07452C129.312 10.7259 128.224 12.2634 127.156 13.6824C126.09 15.0991 125.178 16.1332 124.416 16.7824C124.69 15.2085 125.124 13.4113 125.717 11.391C126.311 9.36835 126.904 7.32293 127.498 5.25474C127.934 3.74232 128.332 2.27318 128.693 0.851868L134.044 3.58288Z" fill="#E6BEAE"/>
    <path d="M140.878 7.22729C140.423 8.01083 139.992 8.72604 139.58 9.37292C139.034 10.2385 138.594 10.8853 138.261 11.3204L138.167 10.7646C138.229 10.4252 138.335 9.89452 138.486 9.1702C138.636 8.4436 138.798 7.63956 138.967 6.76035C139.005 6.55991 139.043 6.35719 139.084 6.15219L139.401 6.31391C139.927 6.56674 140.421 6.87424 140.878 7.22729Z" fill="#E6BEAE"/>
  </g>
</svg>